<?xml version="1.0" encoding="utf-8"?>
<!DOCTYPE svg PUBLIC "-//W3C//DTD SVG 1.1//EN" "http://www.w3.org/Graphics/SVG/1.1/DTD/svg11.dtd">
<svg version="1.1" xmlns="http://www.w3.org/2000/svg" xmlns:xlink="http://www.w3.org/1999/xlink" x="0px" y="0px" width="64px" height="64px" viewBox="0 0 64 64" enable-background="new 0 0 64 64" xml:space="preserve">
	<g id="eye">
		<path fill="#1D1D1B" d="M17.114,0.006c-1.104,0-2,0.896-2,2.002v59.584c0,0.738,0.408,1.418,1.061,1.766
			c0.65,0.346,1.443,0.305,2.055-0.105l13.443-9.047l13.457,9.438c0.344,0.24,0.746,0.363,1.148,0.363
			c0.316,0,0.633-0.074,0.922-0.227c0.664-0.344,1.078-1.027,1.078-1.773V2.008c0-1.105-0.895-2.002-2-2.002H17.114z M44.278,58.158
			l-11.434-8.02c-0.344-0.24-0.746-0.361-1.148-0.361c-0.391,0-0.777,0.113-1.117,0.34l-11.465,7.717V4.008h25.164V58.158z"/>
	</g>
</svg>
