<?xml version="1.0" encoding="utf-8"?>
<!DOCTYPE svg PUBLIC "-//W3C//DTD SVG 1.1//EN" "http://www.w3.org/Graphics/SVG/1.1/DTD/svg11.dtd">
<svg version="1.1" xmlns="http://www.w3.org/2000/svg" xmlns:xlink="http://www.w3.org/1999/xlink" x="0px" y="0px" width="64px"
	 height="64px" viewBox="0 0 64 64" enable-background="new 0 0 64 64" xml:space="preserve">
	<path fill="#1D1D1B" d="M2.629,56.493l6.152,6.844C9.156,63.754,9.69,63.996,10.25,64c0.004,0,0.012,0,0.016,0
		c0.556,0,1.084-0.23,1.463-0.638l31.958-34.345c0.467,0.032,1.07,0.06,1.767,0.06c3.192,0,9.128-0.599,12.996-4.604
		c2.556-2.646,3.784-6.279,3.652-10.797c-0.02-0.622-0.32-1.2-0.821-1.568c-0.497-0.366-1.139-0.48-1.733-0.31l-11.538,3.33
		l-1.049-4.444l11.078-4.077c0.76-0.279,1.277-0.99,1.313-1.803c0.035-0.812-0.419-1.567-1.15-1.913C57.95,2.773,52.011,0,45.853,0
		c-6.637,0-11.117,3.166-12.947,9.129c-0.068,0.218-1.571,5.041,1.045,11L2.652,53.765C1.939,54.529,1.93,55.715,2.629,56.493z
		 M37.815,21.871c0.587-0.631,0.709-1.564,0.305-2.326c-2.641-4.973-1.451-9.016-1.395-9.197c1.305-4.252,4.291-6.318,9.127-6.318
		c1.905,0,3.826,0.329,5.499,0.747l-7.442,2.739c-0.953,0.35-1.496,1.363-1.26,2.358l1.947,8.239
		c0.127,0.535,0.465,0.996,0.939,1.273c0.471,0.277,1.037,0.349,1.562,0.198l10.859-3.136c-0.307,2.144-1.104,3.893-2.383,5.217
		c-2.84,2.941-7.561,3.381-10.122,3.381c-1.362,0-2.276-0.123-2.284-0.123c-0.646-0.09-1.293,0.143-1.736,0.619l-31.14,33.466
		l-3.457-3.845L37.815,21.871z"/>
</svg>
