<?xml version="1.0" encoding="utf-8"?>
<!DOCTYPE svg PUBLIC "-//W3C//DTD SVG 1.1//EN" "http://www.w3.org/Graphics/SVG/1.1/DTD/svg11.dtd">
<svg version="1.1" xmlns="http://www.w3.org/2000/svg" xmlns:xlink="http://www.w3.org/1999/xlink" x="0px" y="0px" width="64px" height="64px" viewBox="0 0 64 64" enable-background="new 0 0 64 64" xml:space="preserve">
	<path fill="#BBBBBB" d="M63.228,0.459c-0.889-0.721-2.186-0.576-2.899,0.32L27.4,42.214L16.619,28.649
		c-0.713-0.897-2.013-1.042-2.9-0.32c-0.888,0.721-1.031,2.032-0.315,2.931l11.929,15.011c0.361,0.646,1.038,1.032,1.768,1.032
		c0.115,0,0.231-0.033,0.349-0.053c0.066,0.008,0.133,0.044,0.202,0.044c0.652,0,1.287-0.319,1.688-0.86L63.545,3.389
		C64.26,2.492,64.117,1.18,63.228,0.459z"/>
	<path fill="#BBBBBB" d="M59.159,21.184c-1.14,0-2.062,0.933-2.062,2.084v34.478c0,1.149-0.926,2.085-2.064,2.085H6.191
		c-1.139,0-2.064-0.936-2.064-2.085V8.393c0-1.148,0.926-2.084,2.064-2.084h33.811c1.141,0,2.063-0.934,2.063-2.086
		c0-1.15-0.923-2.084-2.063-2.084H6.191c-3.414,0-6.19,2.805-6.19,6.254v49.353c0,3.449,2.776,6.255,6.19,6.255h48.841
		c3.414,0,6.191-2.806,6.191-6.255V23.268C61.224,22.116,60.301,21.184,59.159,21.184z"/>
</svg>
