<?xml version="1.0" standalone="no"?>
<!DOCTYPE svg PUBLIC "-//W3C//DTD SVG 20010904//EN"
 "http://www.w3.org/TR/2001/REC-SVG-20010904/DTD/svg10.dtd">
<svg version="1.0" xmlns="http://www.w3.org/2000/svg"
 width="212.000000pt" height="237.000000pt" viewBox="0 0 212.000000 237.000000"
 preserveAspectRatio="xMidYMid meet">
<metadata>
Created by potrace 1.15, written by Peter Selinger 2001-2017
</metadata>
<g transform="translate(0.000000,237.000000) scale(0.100000,-0.100000)"
fill="#000000" stroke="none">
<path d="M857 2259 c-62 -15 -112 -46 -156 -95 -38 -44 -71 -120 -71 -166 0
-17 -14 -18 -227 -18 -208 0 -230 -2 -269 -21 -31 -15 -48 -32 -64 -63 -20
-43 -20 -50 -18 -867 l3 -824 23 -33 c47 -66 2 -63 851 -60 l769 3 27 25 c50
47 55 67 55 240 l0 160 -70 0 -70 0 0 -145 0 -145 -720 0 -720 0 0 650 0 650
720 0 720 0 0 -215 c0 -197 1 -215 18 -217 9 0 41 -2 69 -2 l53 -1 0 373 c0
412 -1 420 -61 463 -33 24 -39 24 -276 27 l-243 3 0 28 c0 84 -77 194 -163
231 -53 23 -131 31 -180 19z m153 -175 c28 -25 41 -47 45 -72 12 -75 25 -109
55 -137 30 -29 35 -30 153 -36 88 -4 131 -10 155 -23 37 -19 72 -70 72 -103
l0 -23 -575 0 c-553 0 -575 1 -575 19 0 24 38 79 73 105 23 17 48 21 150 26
72 3 131 11 145 18 33 19 62 71 62 112 0 84 67 150 151 150 42 0 55 -5 89 -36z"/>
<path d="M340 1330 l0 -70 360 0 360 0 0 70 0 70 -360 0 -360 0 0 -70z"/>
<path d="M1132 1038 l-212 -213 215 -215 215 -215 0 143 0 142 360 0 360 0 0
145 0 145 -360 0 -359 0 -3 140 -3 140 -213 -212z"/>
<path d="M340 1040 l0 -70 180 0 180 0 0 70 0 70 -180 0 -180 0 0 -70z"/>
<path d="M340 755 l0 -75 180 0 180 0 0 75 0 75 -180 0 -180 0 0 -75z"/>
<path d="M340 468 l0 -73 258 1 c141 1 272 2 290 3 l32 1 0 70 0 70 -290 0
-290 0 0 -72z"/>
</g>
</svg>
