<?xml version="1.0" encoding="utf-8"?>
<!-- Generator: Adobe Illustrator 16.0.0, SVG Export Plug-In . SVG Version: 6.00 Build 0)  -->
<!DOCTYPE svg PUBLIC "-//W3C//DTD SVG 1.1//EN" "http://www.w3.org/Graphics/SVG/1.1/DTD/svg11.dtd">
<svg version="1.1" xmlns="http://www.w3.org/2000/svg" xmlns:xlink="http://www.w3.org/1999/xlink" x="0px" y="0px" width="64px"
	 height="64px" viewBox="0 0 64 64" enable-background="new 0 0 64 64" xml:space="preserve">
		<path fill="#1D1D1B" d="M8.857,62.61c1.359,1.29,3.06,1.39,3.509,1.39c0.058,0,0.095-0.002,0.107-0.003h38.868
			c2.045,0,3.312-0.842,4.014-1.548c1.615-1.627,1.646-3.874,1.645-4.11V13.057c0-0.265-0.054-0.528-0.156-0.776
			c-0.104-0.249-0.252-0.475-0.44-0.662L45.404,0.619c-0.189-0.188-0.414-0.337-0.663-0.44c-0.248-0.104-0.513-0.157-0.776-0.157
			H12.474c-2.037,0-3.247,0.89-3.903,1.636C7.067,3.366,7.163,5.752,7.224,6.423v51.916C7.224,60.589,8.111,61.904,8.857,62.61z
			 M42.949,4.084h0.175l9.323,9.323l-7.494,0.002c0.001,0.012-0.865,0.012-1.425-0.52c-0.385-0.366-0.579-0.993-0.579-1.864V4.084z
			 M11.62,4.341c0.056-0.064,0.226-0.257,0.854-0.257h26.412v6.942c0,2.525,1.002,4.008,1.842,4.808
			c1.599,1.521,3.644,1.639,4.193,1.639c0.069,0,0.115-0.001,0.134-0.002h7.883v40.855c-0.036,1.608-1.211,1.608-1.596,1.608
			l-38.976,0.003c-0.006,0-0.455-0.03-0.715-0.275c-0.316-0.301-0.363-0.958-0.363-1.323V6.318c0-0.088-0.006-0.173-0.017-0.259
			C11.228,5.72,11.266,4.744,11.62,4.341z"/>
		<path fill="#1D1D1B" d="M17.694,48.622h14.276c1.124,0,2.032-0.91,2.032-2.032c0-1.121-0.908-2.031-2.032-2.031H17.694
			c-1.123,0-2.032,0.91-2.032,2.031C15.662,47.712,16.571,48.622,17.694,48.622z"/>
</svg>
