<?xml version="1.0" encoding="utf-8"?>
<!DOCTYPE svg PUBLIC "-//W3C//DTD SVG 1.1//EN" "http://www.w3.org/Graphics/SVG/1.1/DTD/svg11.dtd">
<svg version="1.1" xmlns="http://www.w3.org/2000/svg" xmlns:xlink="http://www.w3.org/1999/xlink" x="0px" y="0px" width="64px" height="64px" viewBox="0 0 64 64" enable-background="new 0 0 64 64" xml:space="preserve">
    <circle fill="#FF0000" cx="32.086" cy="50.142" r="2.256"/>
    <path fill="#FF0000" d="M30.08,25.012V42.32c0,1.107,0.897,2.005,2.006,2.005s2.006-0.897,2.006-2.005V25.012
        c0-1.107-0.897-2.006-2.006-2.006S30.08,23.904,30.08,25.012z"/>
    <path fill="#FF0000" d="M63.766,59.234L33.856,3.082c-0.697-1.308-2.844-1.308-3.54,0L0.407,59.234
        c-0.331,0.622-0.312,1.372,0.051,1.975c0.362,0.605,1.015,0.975,1.72,0.975h59.816c0.705,0,1.357-0.369,1.721-0.975
        C64.076,60.606,64.096,59.856,63.766,59.234z M5.519,58.172L32.086,8.291l26.568,49.881H5.519z"/>
</svg>
