<?xml version="1.0" encoding="utf-8"?>
<!DOCTYPE svg PUBLIC "-//W3C//DTD SVG 1.1//EN" "http://www.w3.org/Graphics/SVG/1.1/DTD/svg11.dtd">
<svg version="1.1" xmlns="http://www.w3.org/2000/svg" xmlns:xlink="http://www.w3.org/1999/xlink" x="0px" y="0px" width="64px"
	 height="64px" viewBox="0 0 64 64" enable-background="new 0 0 64 64" xml:space="preserve">
	<path fill="#bbbbbb" d="M32,0C14.355,0,0,14.355,0,32s14.355,32,32,32s32-14.355,32-32S49.645,0,32,0z M32,60
		C16.561,60,4,47.439,4,32S16.561,4,32,4s28,12.561,28,28S47.439,60,32,60z"/>
	<path fill="#bbbbbb" d="M32.541,10.434c-7.9,0-14.326,6.426-14.326,14.324c0,1.104,0.895,2,2,2s2-0.896,2-2
		c0-5.692,4.633-10.324,10.326-10.324c5.691,0,10.322,4.632,10.322,10.324s-4.631,10.324-10.322,10.324c-1.105,0-2,0.896-2,2v7.731
		c0,1.104,0.895,2,2,2s2-0.896,2-2v-5.871c6.953-0.976,12.322-6.965,12.322-14.185C46.863,16.859,40.438,10.434,32.541,10.434z"/>
	<circle fill="#bbbbbb" cx="32.539" cy="52.404" r="2.189"/>
</svg>
